<svg width="26" height="26" viewBox="0 0 26 26" fill="none" xmlns="http://www.w3.org/2000/svg">
<path d="M13 0.8125C10.5895 0.8125 8.23322 1.52728 6.22899 2.86646C4.22477 4.20564 2.66267 6.10907 1.74022 8.33604C0.817781 10.563 0.576427 13.0135 1.04668 15.3777C1.51694 17.7418 2.67769 19.9134 4.38214 21.6179C6.08659 23.3223 8.2582 24.4831 10.6223 24.9533C12.9865 25.4236 15.437 25.1822 17.664 24.2598C19.8909 23.3373 21.7944 21.7752 23.1335 19.771C24.4727 17.7668 25.1875 15.4105 25.1875 13C25.1835 9.76891 23.8981 6.67131 21.6134 4.38659C19.3287 2.10186 16.2311 0.816531 13 0.8125ZM17.6875 13.9375H13.9375V17.6875C13.9375 17.9361 13.8387 18.1746 13.6629 18.3504C13.4871 18.5262 13.2486 18.625 13 18.625C12.7514 18.625 12.5129 18.5262 12.3371 18.3504C12.1613 18.1746 12.0625 17.9361 12.0625 17.6875V13.9375H8.31251C8.06386 13.9375 7.82541 13.8387 7.64959 13.6629C7.47378 13.4871 7.37501 13.2486 7.37501 13C7.37501 12.7514 7.47378 12.5129 7.64959 12.3371C7.82541 12.1613 8.06386 12.0625 8.31251 12.0625H12.0625V8.3125C12.0625 8.06386 12.1613 7.8254 12.3371 7.64959C12.5129 7.47377 12.7514 7.375 13 7.375C13.2486 7.375 13.4871 7.47377 13.6629 7.64959C13.8387 7.8254 13.9375 8.06386 13.9375 8.3125V12.0625H17.6875C17.9361 12.0625 18.1746 12.1613 18.3504 12.3371C18.5262 12.5129 18.625 12.7514 18.625 13C18.625 13.2486 18.5262 13.4871 18.3504 13.6629C18.1746 13.8387 17.9361 13.9375 17.6875 13.9375Z" fill="#F5F5F5"/>
</svg>
