<svg width="24" height="24" viewBox="0 0 24 24" fill="none" xmlns="http://www.w3.org/2000/svg">
<mask id="mask0_578_579" style="mask-type:luminance" maskUnits="userSpaceOnUse" x="1" y="1" width="22" height="22">
<path d="M22.5 1.5H1.5V22.5H22.5V1.5Z" fill="white"/>
</mask>
<g mask="url(#mask0_578_579)">
<path fill-rule="evenodd" clip-rule="evenodd" d="M22.0445 19.6254C21.9219 19.6254 21.8036 19.5575 21.743 19.439L14.6007 5.49513C14.5136 5.32523 14.578 5.11541 14.7445 5.02655C14.9107 4.93769 15.1163 5.00346 15.2033 5.17337L22.3454 19.1173C22.4324 19.2871 22.368 19.497 22.2017 19.5858C22.1514 19.6127 22.0976 19.6254 22.0445 19.6254ZM1.94901 19.6259C1.89598 19.6259 1.8421 19.6133 1.79178 19.5861C1.62553 19.4975 1.56112 19.2876 1.64815 19.118L8.81728 5.12338C8.90431 4.9533 9.10998 4.88753 9.27606 4.97673C9.44247 5.06559 9.50689 5.27524 9.41986 5.44515L2.25073 19.4396C2.18988 19.5581 2.07157 19.6259 1.94901 19.6259ZM12.6831 15.9904C12.6831 15.6099 12.381 15.3015 12.0084 15.3015C11.6358 15.3015 11.3337 15.6099 11.3337 15.9904C11.3337 16.3709 11.6358 16.6793 12.0084 16.6793C12.381 16.6793 12.6831 16.3709 12.6831 15.9904ZM12.6831 7.31271C12.6831 6.93228 12.381 6.62388 12.0084 6.62388C11.6358 6.62388 11.3337 6.93228 11.3337 7.31271C11.3337 7.69314 11.6358 8.00154 12.0084 8.00154C12.381 8.00154 12.6831 7.69314 12.6831 7.31271ZM15.2328 19.9821C15.2328 19.6017 14.9307 19.2933 14.5581 19.2933C14.1855 19.2933 13.8834 19.6017 13.8834 19.9821C13.8834 20.3625 14.1855 20.6709 14.5581 20.6709C14.9307 20.6709 15.2328 20.3625 15.2328 19.9821ZM10.1333 19.9821C10.1333 19.6017 9.83128 19.2933 9.45868 19.2933C9.08608 19.2933 8.78403 19.6017 8.78403 19.9821C8.78403 20.3625 9.08608 20.6709 9.45868 20.6709C9.83128 20.6709 10.1333 20.3625 10.1333 19.9821ZM10.1333 11.6516C10.1333 11.2711 9.83128 10.9627 9.45868 10.9627C9.08608 10.9627 8.78403 11.2711 8.78403 11.6516C8.78403 12.032 9.08608 12.3404 9.45868 12.3404C9.83128 12.3404 10.1333 12.032 10.1333 11.6516ZM5.03385 19.9821C5.03385 19.6017 4.73179 19.2933 4.35919 19.2933C3.98659 19.2933 3.68454 19.6017 3.68454 19.9821C3.68454 20.3625 3.98659 20.6709 4.35919 20.6709C4.73179 20.6709 5.03385 20.3625 5.03385 19.9821ZM17.7825 15.9904C17.7825 15.6099 17.4804 15.3015 17.1078 15.3015C16.7352 15.3015 16.4331 15.6099 16.4331 15.9904C16.4331 16.3709 16.7352 16.6793 17.1078 16.6793C17.4804 16.6793 17.7825 16.3709 17.7825 15.9904ZM20.3322 19.9821C20.3322 19.6017 20.0301 19.2933 19.6575 19.2933C19.2849 19.2933 18.9828 19.6017 18.9828 19.9821C18.9828 20.3625 19.2849 20.6709 19.6575 20.6709C20.0301 20.6709 20.3322 20.3625 20.3322 19.9821ZM11.9541 5.68439C10.8241 5.68439 9.90499 4.74581 9.90499 3.59219C9.90499 2.43858 10.8241 1.5 11.9541 1.5C12.3033 1.5 12.6482 1.59129 12.9514 1.76415C13.1154 1.85752 13.1742 2.0689 13.0826 2.2364C12.9913 2.40369 12.7838 2.46339 12.6201 2.37037C12.4177 2.25513 12.1875 2.19422 11.9541 2.19422C11.1992 2.19422 10.5849 2.82126 10.5849 3.59219C10.5849 4.36295 11.1992 4.99017 11.9541 4.99017C12.709 4.99017 13.3233 4.36295 13.3233 3.59219C13.3233 3.39729 13.2849 3.20881 13.2091 3.03213C13.1336 2.85667 13.212 2.65188 13.3842 2.57499C13.5562 2.4981 13.7566 2.57829 13.8319 2.75374C13.9456 3.01876 14.0032 3.30096 14.0032 3.59219C14.0032 4.74581 13.084 5.68439 11.9541 5.68439ZM6.90901 18.0825C5.77914 18.0825 4.85971 17.144 4.85971 15.9903C4.85971 14.8367 5.77914 13.8983 6.90901 13.8983C7.25815 13.8983 7.60287 13.9896 7.90612 14.1623C8.07015 14.2558 8.12896 14.4672 8.03734 14.6345C7.94607 14.802 7.73851 14.8616 7.57482 14.7685C7.37272 14.6533 7.1424 14.5925 6.90901 14.5925C6.15394 14.5925 5.53963 15.2196 5.53963 15.9903C5.53963 16.7613 6.15394 17.3883 6.90901 17.3883C7.66389 17.3883 8.27821 16.7613 8.27821 15.9903C8.27821 15.7956 8.23962 15.6072 8.16397 15.4304C8.08851 15.2547 8.16703 15.0501 8.33905 14.9732C8.51091 14.8963 8.71165 14.9763 8.78679 15.152C8.9005 15.4172 8.95813 15.6992 8.95813 15.9903C8.95813 17.144 8.03904 18.0825 6.90901 18.0825ZM14.5581 13.7437C13.4283 13.7437 12.5088 12.8051 12.5088 11.6515C12.5088 10.4979 13.4283 9.55949 14.5581 9.55949C14.9073 9.55949 15.252 9.65077 15.5553 9.82347C15.7193 9.91701 15.7781 10.1284 15.6864 10.2957C15.5952 10.4632 15.3876 10.5227 15.224 10.4297C15.0218 10.3145 14.7915 10.2537 14.5581 10.2537C13.8031 10.2537 13.1888 10.8807 13.1888 11.6515C13.1888 12.4224 13.8031 13.0495 14.5581 13.0495C15.3131 13.0495 15.9273 12.4224 15.9273 11.6515C15.9273 11.4568 15.8888 11.2683 15.8132 11.0915C15.7376 10.9158 15.8162 10.7112 15.9882 10.6343C16.1603 10.5574 16.3608 10.6376 16.436 10.8131C16.5497 11.0782 16.6073 11.3603 16.6073 11.6515C16.6073 12.8051 15.6882 13.7437 14.5581 13.7437Z" fill="white"/>
<path fill-rule="evenodd" clip-rule="evenodd" d="M20.9487 22.4119H2.95894C2.1546 22.4119 1.5 21.7435 1.5 20.9223C1.5 20.7304 1.65213 20.5752 1.83996 20.5752C2.02763 20.5752 2.17992 20.7304 2.17992 20.9223C2.17992 21.3609 2.5294 21.7176 2.95894 21.7176H20.9487C21.3783 21.7176 21.7278 21.3609 21.7278 20.9223C21.7278 20.7304 21.8799 20.5752 22.0677 20.5752C22.2554 20.5752 22.4077 20.7304 22.4077 20.9223C22.4077 21.7435 21.7532 22.4119 20.9487 22.4119Z" fill="white"/>
</g>
</svg>
