<svg width="24" height="24" viewBox="0 0 24 24" fill="none" xmlns="http://www.w3.org/2000/svg">
<g clip-path="url(#clip0_791_366)">
<path d="M18.7988 4.43291C16.6197 4.19079 8.69993 4.01876 6.10673 13.6843L10.1845 17.7621C19.78 15.0988 19.6589 7.24274 19.4359 5.07006C19.4212 4.90604 19.3493 4.7524 19.2329 4.63595C19.1164 4.5195 18.9628 4.44764 18.7988 4.43291Z" stroke="white" stroke-width="1.5" stroke-linecap="round" stroke-linejoin="round"/>
<path d="M9.83402 7.14078L5.43769 7.53582C5.32848 7.54422 5.22289 7.57869 5.12976 7.63634C5.03663 7.69399 4.95869 7.77314 4.90248 7.86714L2.13725 12.1998C2.0718 12.303 2.0337 12.4212 2.02652 12.5433C2.01934 12.6653 2.04332 12.7872 2.0962 12.8974C2.14909 13.0077 2.22914 13.1026 2.32883 13.1734C2.42852 13.2442 2.54458 13.2884 2.66608 13.302L6.10669 13.6843" stroke="white" stroke-width="1.5" stroke-linecap="round" stroke-linejoin="round"/>
<path d="M16.741 13.9456L16.3332 18.4311C16.3248 18.5403 16.2903 18.6459 16.2327 18.739C16.175 18.8321 16.0959 18.9101 16.0019 18.9663L11.6693 21.7315C11.566 21.797 11.4478 21.8351 11.3257 21.8423C11.2037 21.8494 11.0818 21.8255 10.9716 21.7726C10.8613 21.7197 10.7664 21.6396 10.6956 21.5399C10.6248 21.4403 10.5806 21.3242 10.567 21.2027L10.1847 17.7621" stroke="white" stroke-width="1.5" stroke-linecap="round" stroke-linejoin="round"/>
<path d="M13.202 10.2594C13.7878 10.8452 14.7376 10.8452 15.3234 10.2594C15.9091 9.67359 15.9091 8.72384 15.3234 8.13805C14.7376 7.55227 13.7878 7.55227 13.202 8.13805C12.6162 8.72384 12.6162 9.67359 13.202 10.2594Z" fill="white"/>
</g>
<defs>
<clipPath id="clip0_791_366">
<rect width="24" height="24" fill="white"/>
</clipPath>
</defs>
</svg>
