<svg width="14" height="19" viewBox="0 0 14 19" fill="none" xmlns="http://www.w3.org/2000/svg">
<path d="M3.42214 14.9116C3.26239 14.8087 3.06871 14.7724 2.88256 14.8105C2.6964 14.8486 2.53256 14.9581 2.4261 15.1156C2.35727 15.2177 2.0134 15.7824 2.0134 16.8977C2.0134 18.0133 2.35727 18.578 2.4261 18.6802C2.53261 18.8375 2.69648 18.947 2.88263 18.985C3.06878 19.0231 3.26243 18.9868 3.42214 18.8838L5.01315 17.8591C4.90004 17.5911 4.8354 17.2727 4.8354 16.9278C4.8354 16.5625 4.90779 16.2266 5.03319 15.9496L3.42214 14.9116ZM9.85825 14.9116L8.23589 15.9567C8.35935 16.2328 8.43077 16.5657 8.43077 16.9278C8.43077 17.2698 8.3671 17.5856 8.25625 17.852L9.85793 18.8841C10.0177 18.9871 10.2114 19.0233 10.3975 18.9852C10.5837 18.9471 10.7475 18.8376 10.854 18.6802C10.9228 18.578 11.2667 18.0133 11.2667 16.8977C11.2667 15.7824 10.9228 15.2177 10.854 15.1159C10.7476 14.9584 10.5837 14.8488 10.3976 14.8107C10.2114 14.7725 10.018 14.8087 9.85825 14.9116ZM7.24955 15.9121H6.01662C5.83564 15.9121 5.56255 16.3171 5.56255 16.9278C5.56255 17.5384 5.83596 17.9435 6.01662 17.9435H7.24955C7.43021 17.9435 7.70362 17.5384 7.70362 16.9278C7.70362 16.3168 7.43021 15.9121 7.24955 15.9121ZM9.43456 8.87564C9.43684 8.75929 9.4159 8.64365 9.37297 8.53549C9.33004 8.42733 9.26599 8.32881 9.18454 8.24571C9.1031 8.1626 9.00591 8.09657 8.89865 8.05148C8.7914 8.00639 8.67623 7.98315 8.55989 7.9831C8.44354 7.98306 8.32836 8.00622 8.22107 8.05123C8.11378 8.09624 8.01654 8.1622 7.93503 8.24525C7.85353 8.32829 7.7894 8.42676 7.74639 8.53489C7.70338 8.64302 7.68236 8.75864 7.68455 8.87499C7.68887 9.10421 7.78291 9.32258 7.94647 9.48318C8.11002 9.64379 8.33004 9.73381 8.55924 9.73389C8.78844 9.73397 9.00852 9.64412 9.1722 9.48364C9.33587 9.32315 9.43007 9.10485 9.43456 8.87564ZM4.63535 9.75071C4.7503 9.75064 4.86412 9.72793 4.97029 9.68388C5.07647 9.63982 5.17293 9.57527 5.25416 9.49392C5.3354 9.41257 5.39982 9.31602 5.44376 9.20977C5.48769 9.10351 5.51026 8.98965 5.5102 8.87467C5.51014 8.75969 5.48743 8.64585 5.44338 8.53965C5.39934 8.43344 5.33481 8.33696 5.25348 8.2557C5.17215 8.17444 5.07562 8.11 4.9694 8.06606C4.86317 8.02212 4.74933 7.99954 4.63439 7.9996C4.51943 7.99964 4.40562 8.02233 4.29943 8.06637C4.19325 8.11041 4.09678 8.17494 4.01553 8.25627C3.93428 8.3376 3.86983 8.43415 3.82588 8.54039C3.78193 8.64664 3.75934 8.7605 3.75938 8.87548C3.75942 8.99046 3.7821 9.1043 3.82613 9.21051C3.87016 9.31672 3.93467 9.41322 4.01598 9.49449C4.0973 9.57577 4.19382 9.64022 4.30003 9.68418C4.40625 9.72815 4.5204 9.75075 4.63535 9.75071ZM12.7669 6.08621C12.6253 5.92085 12.452 5.78563 12.2572 5.6886C11.6183 -0.180863 6.02632 -1.14127 3.24084 1.13934C2.92929 2.01473 3.04693 3.10962 3.61475 4.14761C4.37293 5.53408 6.03989 6.89404 8.4925 6.89437C9.09361 6.89437 9.74191 6.81258 10.4358 6.62929L10.4393 6.64287V7.80984C10.4393 7.93686 10.4898 8.05867 10.5796 8.14849C10.6694 8.2383 10.7911 8.28876 10.9181 8.28876C11.0451 8.28876 11.1669 8.2383 11.2567 8.14849C11.3465 8.05867 11.3969 7.93686 11.3969 7.80984V6.65903C11.6958 6.66291 11.8187 6.76506 11.8849 6.84232C12.0837 7.07475 12.1422 7.56352 12.0455 8.18354C11.9159 9.01529 11.4783 9.19858 11.393 9.22638L11.0472 9.27842C10.9532 9.68573 10.9066 9.9104 10.7919 10.254C9.9258 12.8531 7.67776 13.9877 6.62969 13.9877C5.27428 13.9877 2.68755 12.2246 2.2351 9.28424L1.85925 9.22638C1.77457 9.19858 1.33667 9.01561 1.20675 8.18354C1.10979 7.56352 1.16861 7.07475 1.36769 6.842C1.43394 6.76506 1.55643 6.66291 1.85569 6.65903V7.80984C1.85569 7.93682 1.90612 8.05859 1.99588 8.14837C2.08564 8.23816 2.20738 8.2886 2.33432 8.2886C2.46126 8.2886 2.583 8.23816 2.67276 8.14837C2.76252 8.05859 2.81295 7.93682 2.81295 7.80984V7.14974C2.94513 7.15621 3.08991 7.13714 3.24827 7.08412C3.82224 6.89275 4.26499 6.64028 4.60691 6.36648C3.88881 5.82437 3.34135 5.16298 2.9768 4.49674C2.54794 3.71218 2.33981 2.89433 2.34466 2.12723C1.40938 2.94185 0.819257 4.51484 1.13242 5.62815C0.882314 5.72534 0.66007 5.8828 0.485412 6.08654C0.0529989 6.59179 -0.0943706 7.37861 0.0588162 8.3623C0.223638 9.41743 0.779505 9.97699 1.24165 10.2227C2.16497 13.4414 4.9511 15.1492 6.62969 15.1492C8.24559 15.1492 11.1044 13.5652 12.0158 10.2201C12.477 9.97311 13.0296 9.41387 13.1935 8.36262C13.347 7.37861 13.1996 6.59179 12.7672 6.08686L12.7669 6.08621Z" fill="white"/>
</svg>
