<svg width="189" height="47" viewBox="0 0 189 47" fill="none" xmlns="http://www.w3.org/2000/svg">
<rect width="50" height="47" fill="#7FAA37"/>
<path d="M40.9375 18.9062C40.9375 20.0651 40.7943 21.1003 40.5078 22.0117C40.2214 22.9232 39.8307 23.7305 39.3359 24.4336C38.8542 25.1237 38.2943 25.7161 37.6562 26.2109C37.0182 26.7057 36.3477 27.1159 35.6445 27.4414C34.9544 27.7539 34.2513 27.9818 33.5352 28.125C32.832 28.2682 32.168 28.3398 31.543 28.3398L42.1484 37.5H34.2969L23.7109 28.3398H20.0586V23.2617H31.543C32.181 23.2096 32.7604 23.0794 33.2812 22.8711C33.8151 22.6497 34.2708 22.3568 34.6484 21.9922C35.0391 21.6276 35.3385 21.1914 35.5469 20.6836C35.7552 20.1628 35.8594 19.5703 35.8594 18.9062V15.7031C35.8594 15.4167 35.8203 15.2018 35.7422 15.0586C35.6771 14.9023 35.5859 14.7917 35.4688 14.7266C35.3646 14.6484 35.2474 14.6029 35.1172 14.5898C35 14.5768 34.8893 14.5703 34.7852 14.5703H18.0273V37.5H12.9492V12.0508C12.9492 11.6992 13.0143 11.3672 13.1445 11.0547C13.2747 10.7422 13.4505 10.4688 13.6719 10.2344C13.9062 10 14.1797 9.81771 14.4922 9.6875C14.8047 9.55729 15.1432 9.49219 15.5078 9.49219H34.7852C35.918 9.49219 36.875 9.70052 37.6562 10.1172C38.4375 10.5208 39.069 11.0352 39.5508 11.6602C40.0456 12.2721 40.3971 12.9362 40.6055 13.6523C40.8268 14.3685 40.9375 15.0391 40.9375 15.6641V18.9062Z" fill="white"/>
<path d="M82.2031 20.0547C82.2031 20.9238 82.0957 21.7002 81.8809 22.3838C81.666 23.0674 81.373 23.6729 81.002 24.2002C80.6406 24.7178 80.2207 25.1621 79.7422 25.5332C79.2637 25.9043 78.7607 26.2119 78.2334 26.4561C77.7158 26.6904 77.1885 26.8613 76.6514 26.9688C76.124 27.0762 75.626 27.1299 75.1572 27.1299L83.1113 34H77.2227L69.2832 27.1299H66.5439V23.3213H75.1572C75.6357 23.2822 76.0703 23.1846 76.4609 23.0283C76.8613 22.8623 77.2031 22.6426 77.4863 22.3691C77.7793 22.0957 78.0039 21.7686 78.1602 21.3877C78.3164 20.9971 78.3945 20.5527 78.3945 20.0547V17.6523C78.3945 17.4375 78.3652 17.2764 78.3066 17.1689C78.2578 17.0518 78.1895 16.9688 78.1016 16.9199C78.0234 16.8613 77.9355 16.8271 77.8379 16.8174C77.75 16.8076 77.667 16.8027 77.5889 16.8027H65.0205V34H61.2119V14.9131C61.2119 14.6494 61.2607 14.4004 61.3584 14.166C61.4561 13.9316 61.5879 13.7266 61.7539 13.5508C61.9297 13.375 62.1348 13.2383 62.3691 13.1406C62.6035 13.043 62.8574 12.9941 63.1309 12.9941H77.5889C78.4385 12.9941 79.1562 13.1504 79.7422 13.4629C80.3281 13.7656 80.8018 14.1514 81.1631 14.6201C81.5342 15.0791 81.7979 15.5771 81.9541 16.1143C82.1201 16.6514 82.2031 17.1543 82.2031 17.623V20.0547ZM102.462 23.4092C102.462 23.9365 102.369 24.5078 102.184 25.123C101.998 25.7285 101.695 26.2949 101.275 26.8223C100.865 27.3398 100.323 27.7744 99.6494 28.126C98.9854 28.4775 98.1748 28.6533 97.2178 28.6533H90.3477V25.0352H97.2178C97.7354 25.0352 98.1357 24.8789 98.4189 24.5664C98.7021 24.2441 98.8438 23.8486 98.8438 23.3799C98.8438 22.8818 98.6826 22.4912 98.3604 22.208C98.0479 21.9248 97.667 21.7832 97.2178 21.7832H90.3477C89.8301 21.7832 89.4297 21.9443 89.1465 22.2666C88.8633 22.5791 88.7217 22.9697 88.7217 23.4385V28.7559C88.7217 29.2637 88.8779 29.6592 89.1904 29.9424C89.5127 30.2256 89.9082 30.3672 90.377 30.3672H97.2178V34H90.3477C89.8203 34 89.249 33.9072 88.6338 33.7217C88.0283 33.5361 87.4619 33.2383 86.9346 32.8281C86.417 32.4082 85.9824 31.8662 85.6309 31.2021C85.2793 30.5283 85.1035 29.7129 85.1035 28.7559V23.4092C85.1035 22.8818 85.1963 22.3154 85.3818 21.71C85.5674 21.0947 85.8652 20.5283 86.2754 20.0107C86.6953 19.4834 87.2373 19.0439 87.9014 18.6924C88.5752 18.3408 89.3906 18.165 90.3477 18.165H97.2178C97.7451 18.165 98.3115 18.2578 98.917 18.4434C99.5322 18.6289 100.099 18.9316 100.616 19.3516C101.144 19.7617 101.583 20.3037 101.935 20.9775C102.286 21.6416 102.462 22.4521 102.462 23.4092ZM122.252 35.5234C122.252 36.1777 122.169 36.7637 122.003 37.2812C121.837 37.8086 121.617 38.2676 121.344 38.6582C121.07 39.0586 120.753 39.3955 120.392 39.6689C120.03 39.9521 119.649 40.1816 119.249 40.3574C118.858 40.5332 118.458 40.6602 118.048 40.7383C117.647 40.8262 117.267 40.8701 116.905 40.8701H110.035V37.0615H116.905C117.423 37.0615 117.809 36.9297 118.062 36.666C118.316 36.4023 118.443 36.0215 118.443 35.5234V23.4971C118.443 22.999 118.316 22.623 118.062 22.3691C117.809 22.1055 117.423 21.9736 116.905 21.9736H110.035C109.566 21.9736 109.195 22.1201 108.922 22.4131C108.648 22.6963 108.512 23.0576 108.512 23.4971V28.6533C108.512 29.1514 108.644 29.5322 108.907 29.7959C109.171 30.0596 109.557 30.1914 110.064 30.1914H116.905V34H110.035C109.674 34 109.293 33.9609 108.893 33.8828C108.492 33.7949 108.092 33.6631 107.691 33.4873C107.301 33.3115 106.925 33.0869 106.563 32.8135C106.202 32.5303 105.885 32.1934 105.611 31.8027C105.338 31.4023 105.118 30.9434 104.952 30.4258C104.786 29.8984 104.703 29.3076 104.703 28.6533V23.4971C104.703 23.1357 104.742 22.7549 104.82 22.3545C104.908 21.9541 105.04 21.5586 105.216 21.168C105.392 20.7676 105.616 20.3867 105.89 20.0254C106.173 19.6641 106.51 19.3467 106.9 19.0732C107.301 18.7998 107.76 18.5801 108.277 18.4141C108.795 18.248 109.381 18.165 110.035 18.165H116.905C117.267 18.165 117.647 18.209 118.048 18.2969C118.458 18.375 118.858 18.502 119.249 18.6777C119.649 18.8535 120.03 19.083 120.392 19.3662C120.753 19.6396 121.07 19.9766 121.344 20.377C121.617 20.7676 121.837 21.2217 122.003 21.7393C122.169 22.2568 122.252 22.8428 122.252 23.4971V35.5234ZM142.086 28.7559C142.086 29.2832 141.993 29.8545 141.808 30.4697C141.622 31.0752 141.319 31.6416 140.899 32.1689C140.489 32.6865 139.947 33.1211 139.273 33.4727C138.609 33.8242 137.799 34 136.842 34H129.972C129.444 34 128.873 33.9072 128.258 33.7217C127.652 33.5361 127.086 33.2383 126.559 32.8281C126.041 32.4082 125.606 31.8662 125.255 31.2021C124.903 30.5283 124.728 29.7129 124.728 28.7559C124.728 28.2285 124.82 27.6572 125.006 27.042C125.191 26.4268 125.489 25.8604 125.899 25.3428C126.319 24.8154 126.861 24.376 127.525 24.0244C128.199 23.6729 129.015 23.4971 129.972 23.4971H136.842V27.1299H129.972C129.454 27.1299 129.054 27.291 128.771 27.6133C128.487 27.9258 128.346 28.3164 128.346 28.7852C128.346 29.2832 128.507 29.6738 128.829 29.957C129.161 30.2305 129.552 30.3672 130.001 30.3672H136.842C137.359 30.3672 137.76 30.2109 138.043 29.8984C138.326 29.5859 138.468 29.1953 138.468 28.7266V23.4092C138.468 22.9111 138.312 22.5156 137.999 22.2227C137.696 21.9297 137.311 21.7832 136.842 21.7832H128.478V18.165H136.842C137.369 18.165 137.936 18.2578 138.541 18.4434C139.156 18.6289 139.723 18.9316 140.24 19.3516C140.768 19.7617 141.207 20.3037 141.559 20.9775C141.91 21.6416 142.086 22.4521 142.086 23.4092V28.7559ZM152.296 34H150.597C150.05 34 149.464 33.9072 148.839 33.7217C148.224 33.5361 147.647 33.2334 147.11 32.8135C146.573 32.3838 146.129 31.832 145.777 31.1582C145.426 30.4746 145.25 29.6396 145.25 28.6533V11.4707H149.059V28.6533C149.059 29.1221 149.205 29.498 149.498 29.7812C149.791 30.0547 150.157 30.1914 150.597 30.1914H152.296V34Z" fill="white"/>
</svg>
