<svg width="25" height="24" viewBox="0 0 25 24" fill="none" xmlns="http://www.w3.org/2000/svg">
<g clip-path="url(#clip0_578_784)">
<path d="M0.986702 2.94992L10.8276 0L10.8154 0.710167L10.1501 0.91047L3.04766 14.6722L3.71701 17.4628L10.7625 3.81032L10.7381 5.22155L3.93877 18.3938L4.60609 21.1844L10.6608 9.45068L10.6364 10.8619L4.9255 21.931C4.89702 21.9833 4.8604 22.0266 4.81564 22.0539L4.97433 22.7208C5.02519 22.9347 5.15133 23.1055 5.31003 23.2079C5.46872 23.3103 5.66403 23.3467 5.85527 23.2898L6.46359 23.1077C6.46562 23.0554 6.47783 23.0008 6.50428 22.9507L10.5631 15.091L10.5387 16.5023L7.25298 22.871L9.74525 22.1244L10.4634 20.7314L10.4309 22.6252L6.01396 23.9476C5.65996 24.0546 5.29985 23.9886 5.00485 23.7974C4.70985 23.6062 4.47995 23.2898 4.38433 22.8938L0.0447261 4.77314C-0.0508957 4.37709 0.00810496 3.9742 0.179003 3.64416C0.349902 3.31411 0.632698 3.0569 0.986702 2.94992ZM13.1612 1.05842H23.6714C24.0376 1.05842 24.3693 1.22686 24.6114 1.49545C24.8514 1.76404 25.002 2.13733 25.002 2.54704V21.3096C25.002 21.7193 24.8514 22.0903 24.6114 22.3612C24.3713 22.6297 24.0376 22.7982 23.6714 22.7982H13.1612C12.797 22.7982 12.4633 22.6297 12.2233 22.3612H12.2212C11.9812 22.0926 11.8306 21.7193 11.8306 21.3096V2.54704C11.8306 2.13733 11.9812 1.76631 12.2212 1.49545L12.2396 1.47724C12.4796 1.21775 12.8051 1.05842 13.1612 1.05842ZM21.818 19.5683L21.9401 19.5888L22.4568 21.239H22.8047L23.3174 19.5888L23.4375 19.5683V19.3407H22.8597V19.5683L22.9777 19.591L22.9024 19.8528H22.3531L22.2778 19.591L22.3958 19.5683V19.3407H21.818V19.5683ZM22.4324 20.1328H22.821L22.6298 20.802H22.6216L22.4324 20.1328ZM13.3565 4.32473L13.4786 4.30425L13.9953 2.65402H14.3432L14.8559 4.30425L14.976 4.32473V4.55235H14.3982V4.32473L14.5162 4.30197L14.4409 4.04021H13.8916L13.8163 4.30197L13.9343 4.32473V4.55235H13.3565V4.32473ZM13.9729 3.76024H14.3615L14.1703 3.09105H14.1622L13.9729 3.76024ZM19.4376 15.2982L18.8212 13.7094C19.9239 14.8748 21.6064 14.242 21.6471 12.4234C21.6756 11.1168 20.5607 9.40971 18.3715 7.20182C16.1967 9.40971 15.0716 11.1055 15.1896 12.4234C15.334 14.0212 16.7704 14.7496 17.8772 13.7094L17.4397 15.2982H19.4376ZM23.6694 1.74127H13.1612C12.9699 1.74127 12.795 1.82549 12.6648 1.96434L12.6526 1.978C12.5223 2.12367 12.441 2.32625 12.441 2.54704V21.3096C12.441 21.5303 12.5223 21.7329 12.6526 21.8786C12.7828 22.0243 12.9638 22.1153 13.1612 22.1153H23.6714C23.8688 22.1153 24.0499 22.0243 24.1801 21.8786C24.3103 21.7329 24.3916 21.5303 24.3916 21.3096V2.54704C24.3916 2.32625 24.3103 2.12367 24.1801 1.978C24.0478 1.83005 23.8688 1.74127 23.6694 1.74127ZM3.49525 2.9044L1.26339 7.22913L1.93275 10.0174L5.98955 2.15554L3.49525 2.9044ZM1.04163 6.2959L2.66517 3.1525L1.14539 3.60774C0.95415 3.66464 0.801562 3.80577 0.710009 3.98331C0.618456 4.16313 0.585904 4.38164 0.636767 4.5956L1.04163 6.2959ZM6.82166 1.90744L2.15451 10.9507L2.82386 13.7413L9.31597 1.15857L6.82166 1.90744Z" fill="white"/>
</g>
<defs>
<clipPath id="clip0_578_784">
<rect width="25" height="24" fill="white"/>
</clipPath>
</defs>
</svg>
