<svg width="24" height="24" viewBox="0 0 24 24" fill="none" xmlns="http://www.w3.org/2000/svg">
<g clip-path="url(#clip0_578_585)">
<path d="M8.28651 2.40469C7.74194 1.86016 6.85729 1.86567 6.31964 2.41809L3.24104 5.58125C2.38932 6.45649 3.0078 7.92629 4.23108 7.92629H5.32077V20.6327C5.32077 21.3866 5.93409 21.9999 6.68796 21.9999H8.01608C8.76995 21.9999 9.38327 21.3866 9.38327 20.6327V7.92629H10.473C11.7012 7.92629 12.319 6.43715 11.4498 5.56797L8.28651 2.40469ZM10.4729 6.75442H8.79729C8.4737 6.75442 8.21136 7.01676 8.21136 7.34035V20.6327C8.21136 20.7404 8.12374 20.828 8.01604 20.828H6.68792C6.58022 20.828 6.49261 20.7404 6.49261 20.6327V7.34035C6.49261 7.01676 6.23026 6.75442 5.90667 6.75442H4.23108C4.0446 6.75442 3.95061 6.53238 4.08085 6.39859L7.15944 3.23539C7.24218 3.15039 7.37647 3.15192 7.45792 3.23332L10.6211 6.39656C10.754 6.52945 10.661 6.75442 10.4729 6.75442Z" fill="white"/>
<path d="M19.7696 16.0738H18.68V3.36731C18.68 2.61344 18.0666 2.00012 17.3128 2.00012H15.9846C15.2308 2.00012 14.6175 2.61344 14.6175 3.36731V16.0738H13.5278C12.2995 16.0738 11.6817 17.5629 12.5509 18.4321L15.7142 21.5953C16.2588 22.1399 17.1434 22.1344 17.681 21.582L20.7597 18.4188C21.6114 17.5435 20.9929 16.0738 19.7696 16.0738ZM19.9199 17.6014L16.8413 20.7647C16.7598 20.8484 16.6255 20.8494 16.5428 20.7667L13.3796 17.6035C13.2467 17.4706 13.3397 17.2456 13.5278 17.2456H15.2034C15.527 17.2456 15.7893 16.9833 15.7893 16.6597V3.36731C15.7893 3.25961 15.877 3.172 15.9846 3.172H17.3128C17.4205 3.172 17.5081 3.25961 17.5081 3.36731V16.6597C17.5081 16.9832 17.7704 17.2456 18.094 17.2456H19.7696C19.9558 17.2456 20.0502 17.4675 19.9199 17.6014Z" fill="white"/>
</g>
<defs>
<clipPath id="clip0_578_585">
<rect width="20" height="20" fill="white" transform="translate(2 2)"/>
</clipPath>
</defs>
</svg>
